<?xml version="1.0" encoding="UTF-8"?>
<svg xmlns="http://www.w3.org/2000/svg" version="1.1" viewBox="0 0 1024 1024">
  <!-- Generator: Adobe Illustrator 29.0.0, SVG Export Plug-In . SVG Version: 2.1.0 Build 186)  -->
  <defs>
    <style>
      .st0, .st1 {
        stroke: #000;
      }

      .st0, .st1, .st2 {
        stroke-miterlimit: 10;
      }

      .st0, .st3, .st2 {
        fill: none;
      }

      .st1, .st4 {
        fill: #fff;
      }

      .st4, .st5, .st2 {
        display: none;
      }

      .st6 {
        fill: #c3e7cd;
      }

      .st5 {
        opacity: .26;
      }

      .st7 {
        fill: #14798b;
      }

      .st2 {
        stroke: #29abe2;
      }
    </style>
  </defs>
  <g id="Capa_5" class="st5">
    <ellipse class="st0" cx="379.7" cy="393.83" rx="29.61" ry="29.87"/>
    <ellipse class="st0" cx="478.44" cy="393.83" rx="29.61" ry="29.87"/>
    <path class="st0" d="M531.05,435.99c-5.61,50.35-49.2,89.51-102.13,89.51s-96.57-39.21-102.14-89.59c-33.51,3.41-43.37-56.8-16.37-62.36l2.92-.31c1.8-.03,4.61.08,6.04,1.07,1.36.94,2.12,2.58,3.24,3.76.97,1.12,2.23,1.56,3.43.54.97-.76,1.22-1.94,2.03-2.03.88-.09,1.69.42,2.42.85,2.42,1.4,11.53,6.74,13.06,7.63-.67,2.82-1.02,5.75-1.02,8.77,0,20.71,16.64,37.5,37.17,37.5s37.17-16.79,37.17-37.5c0-.68.06-2.59-.29-5.24v-.02c8.3-3.14,16.66-3.14,25.05,0-.25,1.72-.37,3.47-.37,5.26,0,20.71,16.65,37.5,37.18,37.5s37.17-16.79,37.17-37.5c0-2.44-.23-4.83-.68-7.15,0,0,13.55-10.28,14.69-9.36,5.34,4.27,8.48-3.36,8.48-3.36l8.59-.34c26.25,5.97,16.83,64.37-15.64,62.37Z"/>
    <path class="st0" d="M556.31,369.64l-9.6-1.96-10.77-.08c-5.21-53.61-13.17-50.35-14.34-50.61-1.18-.26-4.83,3-1.31,6.39,3.52,3.39,8.48,36.91,6.26,43.7-2.18,6.65-13.8,11.12-14.23,11.29h-.01c-5.83-13-18.8-22.04-33.87-22.04-15.86,0-29.4,10.02-34.74,24.13-9.75-3.45-19.51-3.45-29.26,0-5.07-12.64-18.53-24.13-34.74-24.13-14.68,0-27.37,8.59-33.41,21.05-6.82-1.51-15.98-7.67-16.43-10.9.6-7.83,4.08-28.98,6.45-38.16.76-2.75,1.94-6.19,2.25-8.95.3-5.74-4.04-2.03-7.75,6.01-.47,1.04-.94,2.17-1.32,3.17-2.36,6.05-4.42,15.35-5.21,21.91-.59,4.28-.94,9.71-1.38,12.38-.57,3.31-1.4,5.02-3.93,5.19-2.2.05-4.98-.19-7.18-.23v-.02h-.01s-.05.01-.07.01c-.08.02-.16.03-.24.05-2.74.51-5.83,1.4-9.07,2.48-.03-.15-.06-.3-.08-.46-2.9-19.39-2.73-32.88,1.27-45.32,4.98-15.5,17.22-28.28,36.79-32h.01c21.54-25.13,53.36-41.04,88.86-41.04s67.01,15.75,88.54,40.67c4.26,1.27,8.27,2.81,11.99,4.65,22.21,10.98,34.05,32.72,26.53,72.82Z"/>
    <path class="st1" d="M313.33,373.24l-2.92.31c.99-.2,1.97-.31,2.92-.31Z"/>
    <line class="st0" x1="311.84" y1="374.54" x2="311.84" y2="374.54"/>
  </g>
  <g id="Capa_6">
    <path class="st7" d="M485.04,667.25"/>
    <path class="st7" d="M492.67,656.29c-1.09,9.02-12.1,14.55-19.71,17.98-20.84,7.88-45.41,8.24-66.58.88-8.51-3.1-27.15-12.86-22.13-23.61,6.65-7.84,14.44,5.31,20.72,7.94,4.07,2.33,8.38,3.83,12.92,4.97,16.77,3.97,37.34,3.45,53.1-4.7,5.14-2.46,9.11-7.87,14.63-9.14,3.59-.77,7.04,1.85,7.05,5.42v.26Z"/>
    <path class="st7" d="M361.52,672.4c-1.66,1.96-5.91,2-7.84.41-1.18-.94-1.57-2.47-1.54-3.95.69-10.12,3.39-18.31,8.35-27.4,5.89-10.37,13.95-18.72,23.26-24.08,4.22-2.69,15.08-6.22,11.46,2.06-.99,1.96-2.81,3.37-4.59,4.73-10.36,7.9-25.65,28.3-27.57,43.81-.23,1.67-.53,3.18-1.37,4.23l-.16.19Z"/>
    <path class="st7" d="M513.89,672.4c1.66,1.96,5.91,2,7.84.41,1.18-.94,1.57-2.47,1.54-3.95-.69-10.12-3.39-18.31-8.35-27.4-5.89-10.37-13.95-18.72-23.26-24.08-4.22-2.69-15.08-6.22-11.46,2.06.99,1.96,2.81,3.37,4.59,4.73,10.36,7.9,25.65,28.3,27.57,43.81.23,1.67.53,3.18,1.37,4.23l.16.19Z"/>
    <path class="st7" d="M497.69,429.77c0,2.85-2.01,5.22-4.7,5.77-1.76-.53-3.51-1.03-5.27-1.51-32.45-8.69-63.84-8.91-97.57-1.25-2.43.53-4.87,1.13-7.32,1.77-2.58-.93-4.42-3.38-4.42-6.28,0-1.96.84-3.73,2.2-4.94,2.08-.55,4.15-1.06,6.2-1.55,36.48-8.67,70.14-8.22,105.25,2.15.91.26,1.82.53,2.74.82.02-.02.02,0,.03,0,1.7,1.03,2.86,2.9,2.86,5.03Z"/>
  </g>
  <g id="Capa_3">
    <path class="st3" d="M883.66,651.97h-80.63v-80.39c0-8.55-6.94-15.45-15.5-15.45h-41.77c-8.56,0-15.5,6.9-15.5,15.45v80.39h-80.61c-8.57,0-15.5,6.92-15.5,15.45v41.65c0,8.53,6.92,15.45,15.5,15.45h80.61v80.41c0,8.53,6.94,15.45,15.5,15.45h41.77c8.56,0,15.5-6.92,15.5-15.45v-80.41h80.63c1,0,1.98-.1,2.93-.27,4.82-12.55,9.02-25.39,12.57-38.51v-18.32c0-8.53-6.94-15.45-15.5-15.45ZM568.38,735.54c-5.13.05-7.64,7.02-10.36,11.18-9.87,18.49-22.21,36.11-34.93,49.89-8.95,9.75-18.11,17.89-27.08,24-4.72,3.47-10.31,6.03-16.27,4.17-8.82-2.52-15.99-9.51-22.83-15.33-6.99-5.85-8.85-9.55-15.53-12.1-19.9-6.15-34.31,31.08-53.84,29.14-11.05-1.6-18.25-13.43-25.76-20.76-12.9-14.47-28.06-33.58-44.42-56.64-2.27-3.18-4.98-6.8-7.83-9-8.21-6.89-17.51-.07-25.34,4.03-11.55,6.51-18.56,10.7-29.79,18.82-24.21,16.16-55.68,51.01-59.11,61.18-.34.81-.1,1.99.46,3.33.05.07.1.14.15.21,73.1,93.57,186.68,153.89,314.36,154.42h1.72c47.62,0,93.32-8.33,135.69-23.61,1.81-.65,3.63-1.3,5.42-1.99,1.57-.57,3.13-1.17,4.68-1.79,1.62-.62,3.22-1.25,4.82-1.91.43-.15.84-.33,1.27-.52,1.81-.74,3.62-1.49,5.41-2.27,8.95-3.83,17.75-7.98,26.36-12.45.95-.48,1.88-.98,2.81-1.48,1.77-.94,3.56-1.92,5.32-2.9,4.18-2.25,9.33-5.34,11.24-8.91l.12-.22c3.39-7.13-.33-17.17-2.08-25.79-22.61-100.17-112.31-153.17-144.67-162.72ZM220.19,499.34c5.58-1.85,10.9-3.38,15.62-4.26.14-.03.28-.05.41-.09.03,0,.09-.02.12-.02h.02v.03c3.79.07,8.57.48,12.36.39,4.36-.29,5.78-3.23,6.77-8.91.76-4.58,1.36-13.91,2.38-21.26,1.36-11.26,4.91-27.23,8.97-37.62.65-1.72,1.46-3.66,2.27-5.44,6.39-13.8,13.86-20.17,13.34-10.32-.53,4.74-2.57,10.65-3.87,15.37-4.08,15.76-10.07,52.08-11.1,65.52.77,5.55,16.55,16.12,28.29,18.71,10.4-21.39,32.25-36.14,57.52-36.14,27.91,0,51.08,19.73,59.81,41.43,16.79-5.92,33.59-5.92,50.38,0,9.19-24.23,32.51-41.43,59.81-41.43s48.28,15.52,58.31,37.84h.02c.74-.29,20.75-7.97,24.5-19.38,3.82-11.66-4.72-69.21-10.78-75.03-6.06-5.82.22-11.42,2.26-10.97,2.01.45,15.72-5.15,24.69,86.9l18.54.14,16.53,3.37c12.95-68.85-7.44-106.18-45.68-125.03-6.4-3.16-13.31-5.8-20.64-7.98-37.07-42.79-91.63-69.83-152.44-69.83s-115.9,27.32-152.99,70.46h-.02c-33.69,6.39-54.77,28.33-63.34,54.94-6.89,21.36-7.18,44.52-2.19,77.81.03.27.09.53.14.79ZM262.16,611.95c9.59,86.5,84.66,153.82,175.85,153.82s166.18-67.24,175.84-153.69c55.9,3.43,72.12-96.84,26.93-107.09l-14.79.58s-5.41,13.1-14.6,5.77c-1.96-1.58-25.29,16.07-25.29,16.07.77,3.98,1.17,8.09,1.17,12.28,0,35.56-28.65,64.39-64,64.39s-64.01-28.83-64.01-64.39c0-3.07.21-6.08.64-9.03-14.44-5.39-28.84-5.39-43.15,0l.02.03c.6,4.55.5,7.83.5,9,0,35.56-28.65,64.39-64,64.39s-64-28.83-64-64.39c0-5.19.6-10.22,1.76-15.06-2.63-1.53-18.32-10.7-22.49-13.1-1.26-.74-2.65-1.61-4.17-1.46-1.39.15-1.82,2.18-3.49,3.49-2.07,1.75-4.24,1-5.91-.93-1.93-2.03-3.24-4.84-5.58-6.46-2.46-1.7-7.3-1.89-10.4-1.84-1.64,0-3.32.19-5.03.53-46.49,9.55-29.51,112.92,28.18,107.07Z"/>
  </g>
  <g id="Capa_8">
    <path class="st7" d="M139.12,45.08c119.87-15.77,200.43,26.58,227.71,147.7-121.58,11.22-204.22-29.11-227.71-147.7Z"/>
  </g>
  <g id="Capa_10">
    <path class="st7" d="M913.19,579.97c0-222.09-179.62-402.11-401.19-402.11-31.63,0-62.41,3.67-91.94,10.61,16.22-94.18,84.83-114.42,84.83-114.42,0,0,11.79-3.37,7.11-18.47-4.68-15.11-20.64-10.27-20.64-10.27-71.67,26.65-100.15,83.8-109.81,154.29-157.54,54.26-270.74,204.06-270.74,380.38,0,93.21,31.64,179.01,84.76,247.21.05.09.12.17.19.26-.57-1.34-.81-2.52-.46-3.33,3.43-10.16,34.9-45.02,59.11-61.18,11.23-8.12,18.23-12.31,29.79-18.82,7.83-4.1,17.13-10.92,25.34-4.03,2.86,2.2,5.56,5.82,7.83,9,16.36,23.06,31.52,42.17,44.42,56.64,7.51,7.33,14.7,19.16,25.76,20.76,19.52,1.94,33.93-35.28,53.84-29.14,6.68,2.56,8.54,6.25,15.53,12.1,6.84,5.82,14.01,12.81,22.83,15.33,5.96,1.85,11.55-.7,16.27-4.17,8.97-6.11,18.13-14.25,27.08-24,12.72-13.79,25.07-31.4,34.93-49.89,2.72-4.16,5.23-11.13,10.36-11.18,32.37,9.55,122.07,62.55,144.67,162.72,1.76,8.62,5.47,18.66,2.08,25.79l-.12.22c-1.91,3.57-7.06,6.66-11.24,8.91-1.76.98-3.55,1.96-5.32,2.9,5.91-3.09,11.71-6.34,17.42-9.72l1.38-.82c76.72-45.88,136.87-116.68,169.33-201.28-.95.17-1.93.27-2.93.27h-80.63v80.41c0,8.53-6.94,15.45-15.5,15.45h-41.77c-8.56,0-15.5-6.92-15.5-15.45v-80.41h-80.61c-8.57,0-15.5-6.92-15.5-15.45v-41.65c0-8.53,6.92-15.45,15.5-15.45h80.61v-80.39c0-8.55,6.94-15.45,15.5-15.45h41.77c8.56,0,15.5,6.9,15.5,15.45v80.39h80.63c8.56,0,15.5,6.92,15.5,15.45v18.32c9.16-33.7,14.03-69.16,14.03-105.76ZM222.24,420.73c8.57-26.61,29.65-48.56,63.34-54.94h.02c37.09-43.15,91.87-70.46,152.99-70.46s115.37,27.04,152.44,69.83c7.33,2.18,14.24,4.82,20.64,7.98,38.24,18.85,58.62,56.18,45.68,125.03l-16.53-3.37-18.54-.14c-8.97-92.05-22.67-86.45-24.69-86.9-2.03-.45-8.32,5.15-2.26,10.97,6.06,5.82,14.6,63.37,10.78,75.03-3.75,11.42-23.76,19.09-24.5,19.38h-.02c-10.04-22.32-32.37-37.84-58.31-37.84-27.31,0-50.62,17.2-59.81,41.43-16.79-5.92-33.59-5.92-50.38,0-8.73-21.7-31.9-41.43-59.81-41.43-25.27,0-47.12,14.75-57.52,36.14-11.74-2.59-27.51-13.17-28.29-18.71,1.03-13.44,7.02-49.76,11.1-65.52,1.31-4.72,3.34-10.63,3.87-15.37.52-9.86-6.96-3.49-13.34,10.32-.81,1.79-1.62,3.73-2.27,5.44-4.06,10.39-7.61,26.36-8.97,37.62-1.02,7.35-1.62,16.67-2.38,21.26-.98,5.68-2.41,8.62-6.77,8.91-3.79.09-8.57-.33-12.36-.39v-.03h-.02s-.09.02-.12.02c-.14.03-.28.05-.41.09-4.72.88-10.04,2.4-15.62,4.26-.05-.26-.1-.52-.14-.79-4.99-33.29-4.7-56.45,2.19-77.81ZM574.26,539.69c0,28.33-22.83,51.29-50.98,51.29s-50.98-22.96-50.98-51.29,22.83-51.29,50.98-51.29,50.98,22.97,50.98,51.29ZM404.26,539.69c0,28.33-22.83,51.29-50.98,51.29s-50.98-22.96-50.98-51.29,22.83-51.29,50.98-51.29,50.98,22.97,50.98,51.29ZM613.86,612.08c-9.66,86.45-84.71,153.69-175.84,153.69s-166.26-67.32-175.85-153.82c-57.69,5.85-74.67-97.52-28.18-107.07,1.7-.34,3.39-.53,5.03-.53,3.1-.05,7.94.14,10.4,1.84,2.34,1.61,3.65,4.43,5.58,6.46,1.67,1.92,3.84,2.68,5.91.93,1.67-1.3,2.1-3.33,3.5-3.49,1.52-.15,2.91.72,4.17,1.46,4.17,2.4,19.85,11.57,22.49,13.1-1.15,4.84-1.76,9.87-1.76,15.06,0,35.56,28.65,64.39,64,64.39s64-28.83,64-64.39c0-1.17.1-4.45-.5-9l-.02-.03c14.31-5.39,28.7-5.39,43.15,0-.43,2.95-.64,5.96-.64,9.03,0,35.56,28.67,64.39,64.01,64.39s64-28.83,64-64.39c0-4.19-.4-8.29-1.17-12.28,0,0,23.33-17.65,25.29-16.07,9.19,7.33,14.6-5.77,14.6-5.77l14.79-.58c45.19,10.25,28.98,110.52-26.93,107.09Z"/>
  </g>
  <g id="Capa_7">
    <g>
      <path class="st6" d="M444.56,816.38"/>
      <path class="st6" d="M340.47,774.05"/>
      <path class="st6" d="M395.04,826.79"/>
      <path class="st6" d="M400.42,826.79"/>
      <path class="st6" d="M402.17,825.66"/>
      <path class="st6" d="M403.47,824.3"/>
      <path class="st6" d="M438.16,796.22"/>
      <path class="st6" d="M715.14,924.04l-.12.22c-1.91,3.57-7.06,6.66-11.24,8.91-1.76.98-3.55,1.96-5.32,2.9-.93.5-1.86,1-2.81,1.48-8.54,4.48-17.34,8.64-26.36,12.45-1.79.77-3.6,1.53-5.41,2.27-.43.19-.84.36-1.27.52-1.6.65-3.2,1.29-4.82,1.91-1.55.62-3.12,1.22-4.68,1.79-1.79.69-3.62,1.34-5.42,1.99-42.94,15.28-89.75,23.51-136.51,23.61h-.9c-24.53,0-49.05-2.23-72.97-6.87-94.88-17.79-178.2-68.78-237.2-140.88-1.57-1.99-3.41-4.65-4.36-6.89-.57-1.34-.81-2.52-.46-3.33,3.43-10.16,34.9-45.02,59.11-61.18,11.23-8.12,18.23-12.31,29.79-18.82,7.83-4.1,17.13-10.92,25.34-4.03,2.86,2.2,5.56,5.82,7.83,9,16.36,23.06,31.52,42.17,44.42,56.64,7.51,7.33,14.7,19.16,25.76,20.76,19.52,1.94,33.93-35.28,53.84-29.14,6.68,2.56,8.54,6.25,15.53,12.1,6.84,5.82,14.01,12.81,22.83,15.33,5.96,1.85,11.55-.7,16.27-4.17,8.97-6.11,18.13-14.25,27.08-24,12.72-13.79,25.07-31.4,34.93-49.89,2.72-4.16,5.23-11.13,10.36-11.18,32.37,9.55,122.07,62.55,144.67,162.72,1.76,8.62,5.47,18.66,2.08,25.79Z"/>
      <path class="st6" d="M478.7,824.97"/>
    </g>
  </g>
  <g id="Capa_2">
    <path class="st4" d="M696.76,468.22v10.67c-2.06,7.64-4.5,15.12-7.3,22.43-.55.1-1.12.16-1.7.16h-46.83v46.83c0,4.97-4.03,9-9,9h-24.26c-4.97,0-9-4.03-9-9v-46.83h-46.82c-4.98,0-9-4.03-9-9v-24.26c0-4.97,4.02-9,9-9h46.82v-46.82c0-4.98,4.03-9,9-9h24.26c4.97,0,9,4.02,9,9v46.82h46.83c4.97,0,9,4.03,9,9Z"/>
  </g>
  <g id="Capa_4">
    <ellipse class="st2" cx="379.7" cy="393.83" rx="29.61" ry="29.87"/>
    <ellipse class="st2" cx="478.44" cy="393.83" rx="29.61" ry="29.87"/>
    <ellipse class="st2" cx="379.7" cy="393.83" rx="29.61" ry="29.87"/>
    <ellipse class="st2" cx="478.44" cy="393.83" rx="29.61" ry="29.87"/>
    <path class="st7" d="M550.79,547.76v.02c-.1.7-.34,1.36-.71,1.94-1.08,1.72-3.19,2.9-5.58,2.9-2.17,0-4.1-.94-5.23-2.4-.05-.07-.1-.14-.14-.21-.1-.17-.21-.34-.33-.5-3.31-4.76-9.88-7.98-17.44-7.98s-14.32,3.33-17.58,8.19c-1.14,1.72-3.32,2.9-5.84,2.9-3.63,0-6.58-2.44-6.63-5.46.05-.52.14-1.03.24-1.55v-.02c2.19-10.77,14.55-19.01,29.46-19.01s26.74,7.86,29.3,18.29c0,.02.02.03.02.03.07.34.14.69.21,1.05.12.58.21,1.2.24,1.8Z"/>
    <path class="st7" d="M383.01,547.86v.02c-.1.7-.34,1.36-.71,1.94-1.08,1.72-3.19,2.9-5.58,2.9-2.17,0-4.1-.94-5.23-2.4-.05-.07-.1-.14-.14-.21-.1-.17-.21-.34-.33-.5-3.31-4.76-9.88-7.98-17.44-7.98s-14.32,3.33-17.58,8.19c-1.14,1.72-3.32,2.9-5.84,2.9-3.63,0-6.58-2.44-6.63-5.46.05-.52.14-1.03.24-1.55v-.02c2.19-10.77,14.55-19.01,29.46-19.01s26.74,7.86,29.3,18.29c0,.02.02.03.02.03.07.34.14.69.21,1.05.12.58.21,1.2.24,1.8Z"/>
  </g>
</svg>